<svg width="25" height="24" viewBox="0 0 25 24" fill="none" xmlns="http://www.w3.org/2000/svg">
<path fill-rule="evenodd" clip-rule="evenodd" d="M3.5 3.68605C3.5 2.20258 4.70258 1 6.18605 1H12.0465C13.53 1 14.7326 2.20258 14.7326 3.68605V19.314C14.7326 20.7974 13.53 22 12.0465 22H6.18605C4.70258 22 3.5 20.7974 3.5 19.314V3.68605ZM6.18605 2.46512C5.51175 2.46512 4.96512 3.01175 4.96512 3.68605V19.314C4.96512 19.9883 5.51175 20.5349 6.18605 20.5349H12.0465C12.7208 20.5349 13.2674 19.9883 13.2674 19.314V3.68605C13.2674 3.01175 12.7208 2.46512 12.0465 2.46512H6.18605ZM7.16279 3.93023C7.16279 3.52565 7.49077 3.19767 7.89535 3.19767H10.3372C10.7418 3.19767 11.0698 3.52565 11.0698 3.93023C11.0698 4.33481 10.7418 4.66279 10.3372 4.66279H7.89535C7.49077 4.66279 7.16279 4.33481 7.16279 3.93023ZM15.9535 7.83721C15.9535 7.43263 16.2815 7.10465 16.686 7.10465H19.1279C19.5325 7.10465 19.8605 7.43263 19.8605 7.83721C19.8605 8.24179 19.5325 8.56977 19.1279 8.56977H16.686C16.2815 8.56977 15.9535 8.24179 15.9535 7.83721ZM15.9535 10.7674C15.9535 10.3629 16.2815 10.0349 16.686 10.0349H21.0814C21.486 10.0349 21.814 10.3629 21.814 10.7674C21.814 11.172 21.486 11.5 21.0814 11.5H16.686C16.2815 11.5 15.9535 11.172 15.9535 10.7674ZM15.9535 13.6977C15.9535 13.2931 16.2815 12.9651 16.686 12.9651H19.1279C19.5325 12.9651 19.8605 13.2931 19.8605 13.6977C19.8605 14.1023 19.5325 14.4302 19.1279 14.4302H16.686C16.2815 14.4302 15.9535 14.1023 15.9535 13.6977ZM8.13953 19.5581C8.13953 19.1536 8.46751 18.8256 8.87209 18.8256H9.36047C9.76505 18.8256 10.093 19.1536 10.093 19.5581C10.093 19.9627 9.76505 20.2907 9.36047 20.2907H8.87209C8.46751 20.2907 8.13953 19.9627 8.13953 19.5581Z" fill="#FF3347"/>
</svg>
