<svg width="25" height="24" viewBox="0 0 25 24" fill="none" xmlns="http://www.w3.org/2000/svg">
<path d="M5.5 4.5H15.5C15.7761 4.5 16 4.72386 16 5V6H17.5V5C17.5 3.89543 16.6046 3 15.5 3H5.5C4.39543 3 3.5 3.89543 3.5 5V15C3.5 16.1046 4.39543 17 5.5 17H6.5V15.5H5.5C5.22386 15.5 5 15.2761 5 15V5C5 4.72386 5.22386 4.5 5.5 4.5Z" fill="#FF3347"/>
<path fill-rule="evenodd" clip-rule="evenodd" d="M19.5 8.5H9.5C9.22386 8.5 9 8.72386 9 9V19C9 19.2761 9.22386 19.5 9.5 19.5H19.5C19.7761 19.5 20 19.2761 20 19V9C20 8.72386 19.7761 8.5 19.5 8.5ZM9.5 7C8.39543 7 7.5 7.89543 7.5 9V19C7.5 20.1046 8.39543 21 9.5 21H19.5C20.6046 21 21.5 20.1046 21.5 19V9C21.5 7.89543 20.6046 7 19.5 7H9.5Z" fill="#FF3347"/>
<path fill-rule="evenodd" clip-rule="evenodd" d="M20.5 12H8.5V10.5H20.5V12Z" fill="#FF3347"/>
<path fill-rule="evenodd" clip-rule="evenodd" d="M20.5 15H8.5V13.5H20.5V15Z" fill="#FF3347"/>
<path fill-rule="evenodd" clip-rule="evenodd" d="M13.5 20V11H15V20H13.5Z" fill="#FF3347"/>
<path fill-rule="evenodd" clip-rule="evenodd" d="M20.5 18H8.5V16.5H20.5V18Z" fill="#FF3347"/>
</svg>
